<svg width="40" height="48" viewBox="0 0 40 48" fill="none" xmlns="http://www.w3.org/2000/svg">
<path d="M39.6511 9.52567C39.5121 9.326 39.3382 9.16539 39.1418 9.0552C38.9453 8.94501 38.7311 8.88792 38.5142 8.88796H8.64348L7.73803 2.9197C7.61401 2.10053 7.25434 1.35957 6.72173 0.826007C6.18912 0.292444 5.51735 0.000120331 4.82354 0H1.48132C1.08845 0 0.711668 0.187281 0.433868 0.520645C0.156067 0.854008 0 1.30615 0 1.77759C0 2.24904 0.156067 2.70118 0.433868 3.03454C0.711668 3.3679 1.08845 3.55519 1.48132 3.55519H4.81428L9.54709 34.7275C9.6865 35.652 10.027 36.5158 10.534 37.2317C9.83418 38.0161 9.32906 39.0177 9.07465 40.1256C8.82025 41.2335 8.82652 42.4042 9.09275 43.5081C9.35898 44.612 9.87478 45.6058 10.5829 46.3793C11.2911 47.1529 12.164 47.6759 13.1048 47.8905C14.0455 48.1051 15.0175 48.0029 15.9128 47.5951C16.8081 47.1873 17.5918 46.4899 18.1769 45.5803C18.7621 44.6707 19.1259 43.5843 19.228 42.4417C19.3301 41.2991 19.1665 40.1449 18.7553 39.107H27.1655C26.8341 39.9396 26.6626 40.8508 26.6637 41.7734C26.6637 43.0039 26.9678 44.2068 27.5375 45.2299C28.1072 46.2531 28.9169 47.0505 29.8643 47.5214C30.8116 47.9923 31.8541 48.1155 32.8598 47.8755C33.8655 47.6354 34.7893 47.0428 35.5144 46.1727C36.2395 45.3026 36.7333 44.1941 36.9333 42.9872C37.1334 41.7803 37.0307 40.5294 36.6383 39.3925C36.2459 38.2557 35.5813 37.284 34.7287 36.6004C33.8761 35.9167 32.8737 35.5518 31.8483 35.5518H13.9188C13.5719 35.5518 13.236 35.4056 12.9697 35.1388C12.7034 34.8721 12.5236 34.5016 12.4616 34.092L11.8746 30.2191H33.3537C34.3944 30.2189 35.4021 29.7804 36.201 28.9801C36.9999 28.1797 37.5394 27.0683 37.7254 25.8395L39.977 10.9833C40.0152 10.7265 40.0057 10.4628 39.9494 10.2109C39.8931 9.95902 39.7913 9.72507 39.6511 9.52567ZM31.8483 39.107C32.2878 39.107 32.7174 39.2634 33.0828 39.5564C33.4482 39.8494 33.733 40.2658 33.9011 40.753C34.0693 41.2403 34.1133 41.7764 34.0276 42.2936C33.9419 42.8108 33.7302 43.2859 33.4195 43.6588C33.1087 44.0317 32.7128 44.2857 32.2818 44.3886C31.8508 44.4915 31.404 44.4387 30.998 44.2368C30.592 44.035 30.245 43.6933 30.0008 43.2548C29.7567 42.8163 29.6263 42.3008 29.6263 41.7734C29.6263 41.0663 29.8604 40.3881 30.2771 39.888C30.6938 39.388 31.259 39.107 31.8483 39.107ZM14.0725 39.107C14.512 39.107 14.9416 39.2634 15.307 39.5564C15.6724 39.8494 15.9572 40.2658 16.1253 40.753C16.2935 41.2403 16.3375 41.7764 16.2518 42.2936C16.1661 42.8108 15.9544 43.2859 15.6437 43.6588C15.3329 44.0317 14.937 44.2857 14.506 44.3886C14.075 44.4915 13.6282 44.4387 13.2222 44.2368C12.8162 44.035 12.4692 43.6933 12.225 43.2548C11.9809 42.8163 11.8505 42.3008 11.8505 41.7734C11.8505 41.0663 12.0846 40.3881 12.5013 39.888C12.918 39.388 13.4832 39.107 14.0725 39.107Z" fill="#9747FF"/>
</svg>
